<?xml version="1.0" encoding="UTF-8"?>
<svg xmlns="http://www.w3.org/2000/svg" viewBox="0 0 32 32" role="img" aria-labelledby="title">
  <title id="title">Easy Notes</title>
  <rect width="32" height="32" fill="#111111"/>
  <rect fill="#ffffff" x="8" y="4" width="16" height="24"/>
  <g fill="none" stroke="#111111" stroke-width="1.1" stroke-linecap="round" stroke-linejoin="round">
    <path d="M10.4 10.4c.8-1.6 1.7.9 2.5-.4.8-1.2 1.4 1.1 2.3-.2.8-1.1 1.5.8 2.3-.3.7-.9 1.4.6 2.1-.1"/>
    <path d="M10.4 15.2c1.1-1.4 1.9.8 2.9-.3.9-1 1.5 1 2.5-.2.8-.9 1.5.7 2.2-.2.6-.8 1.2.5 1.8 0"/>
    <path d="M10.4 20.6c.9-1.2 1.6.7 2.5-.3.8-.9 1.3.8 2.1 0 .6-.6 1.1.4 1.6-.1"/>
  </g>
  <rect fill="#FFE135" x="10.4" y="16.5" width="11.2" height="1.4"/>
</svg>
